<?xml version="1.0" standalone="no"?>
<!DOCTYPE svg PUBLIC "-//W3C//DTD SVG 20010904//EN"
 "http://www.w3.org/TR/2001/REC-SVG-20010904/DTD/svg10.dtd">
<svg version="1.0" xmlns="http://www.w3.org/2000/svg"
 width="2040.000000pt" height="2040.000000pt" viewBox="0 0 2040.000000 2040.000000"
 preserveAspectRatio="xMidYMid meet">
<metadata>
Created by potrace 1.11, written by Peter Selinger 2001-2013
</metadata>
<g transform="translate(0.000000,2040.000000) scale(0.100000,-0.100000)"
fill="#000000" stroke="none">
<path d="M2777 16323 c-3 -2 -18 -6 -33 -8 -356 -48 -673 -270 -847 -595 -46
-84 -100 -233 -111 -300 -3 -19 -9 -46 -13 -60 -11 -35 -14 -7514 -3 -7575 5
-27 11 -66 14 -85 22 -124 106 -315 192 -437 166 -233 417 -393 719 -459 75
-16 285 -17 3210 -19 1722 -2 3135 -3 3140 -4 7 -1 10 -496 11 -1463 0 -1390
2 -1533 24 -1607 5 -17 7 -31 5 -31 -3 0 12 -46 31 -102 65 -187 140 -306 278
-443 89 -88 96 -94 176 -146 121 -80 247 -132 400 -165 l105 -23 3765 0 c2352
0 3788 4 3825 10 340 54 635 253 814 548 61 100 122 259 136 351 4 25 9 49 12
54 13 20 11 293 -2 367 -91 516 -495 897 -1012 955 -32 3 -1454 6 -3160 6
l-3103 1 -1 31 c-2 119 2 4920 4 4923 2 1 1425 4 3163 6 l3159 2 95 27 c188
53 315 118 455 232 204 167 351 421 399 691 18 100 13 347 -8 423 -8 29 -15
56 -15 60 -4 31 -39 129 -72 199 -155 332 -468 570 -839 639 -8 2 -46 6 -85
10 -90 9 -11102 9 -11175 0 -144 -17 -244 -47 -375 -110 -161 -79 -316 -204
-410 -331 -17 -22 -32 -42 -35 -45 -11 -9 -64 -104 -93 -165 -104 -217 -137
-496 -85 -725 5 -25 11 -52 13 -60 2 -8 13 -44 25 -80 77 -224 247 -443 445
-575 85 -56 221 -125 248 -125 7 0 17 -3 21 -7 4 -5 11 -8 14 -9 4 0 27 -6 51
-13 138 -39 151 -40 1495 -41 715 0 1302 -2 1304 -5 7 -7 5 -955 -2 -962 -3
-4 -1128 -7 -2500 -7 l-2494 -1 2 2480 1 2480 3125 1 c1719 0 3145 4 3170 8
298 48 531 176 724 397 302 347 358 881 134 1287 -90 165 -243 328 -403 430
-90 57 -283 132 -379 147 -21 4 -48 9 -60 13 -24 7 -7582 13 -7589 5z"/>
</g>
</svg>
